<mxfile host="app.diagrams.net" agent="Mozilla/5.0 (Macintosh; Intel Mac OS X 10_15_7) AppleWebKit/537.36 (KHTML, like Gecko) Chrome/116.0.0.0 Safari/537.36" version="26.0.11">
  <diagram name="Page-1" id="qWE6s-IcHEfQxez9r86c">
    <mxGraphModel dx="1649" dy="1630" grid="1" gridSize="10" guides="1" tooltips="1" connect="1" arrows="1" fold="1" page="1" pageScale="1" pageWidth="850" pageHeight="1100" math="0" shadow="0">
      <root>
        <mxCell id="0" />
        <mxCell id="1" parent="0" />
        <mxCell id="Ux2qAAe1gOKTnrGUfpTu-42" value="Intermediate situation" style="rounded=1;whiteSpace=wrap;html=1;verticalAlign=top;fillStyle=auto;gradientColor=none;dashed=1;" parent="1" vertex="1">
          <mxGeometry x="770" y="-10" width="320" height="310" as="geometry" />
        </mxCell>
        <mxCell id="Ux2qAAe1gOKTnrGUfpTu-41" value="Begin situation" style="rounded=1;whiteSpace=wrap;html=1;verticalAlign=top;fillStyle=auto;gradientColor=none;dashed=1;" parent="1" vertex="1">
          <mxGeometry x="470" y="-10" width="220" height="310" as="geometry" />
        </mxCell>
        <mxCell id="IyKs0MpaTiuhfgl_7AT9-2" value="" style="rounded=0;whiteSpace=wrap;html=1;strokeWidth=3;" parent="1" vertex="1">
          <mxGeometry x="80.58" y="50" width="320" height="210" as="geometry" />
        </mxCell>
        <mxCell id="IyKs0MpaTiuhfgl_7AT9-3" value="honey" style="shape=process;whiteSpace=wrap;html=1;backgroundOutline=1;rotation=-90;textDirection=ltr;direction=west;size=0.032747663551402684;" parent="1" vertex="1">
          <mxGeometry x="30.74" y="139.86" width="174.7" height="35" as="geometry" />
        </mxCell>
        <mxCell id="IyKs0MpaTiuhfgl_7AT9-9" value="&lt;b&gt;(1)&lt;/b&gt;&lt;div&gt;Brood&lt;/div&gt;" style="rounded=0;whiteSpace=wrap;html=1;strokeWidth=3;horizontal=1;verticalAlign=top;" parent="1" vertex="1">
          <mxGeometry x="520" y="190" width="120" height="80" as="geometry" />
        </mxCell>
        <mxCell id="IyKs0MpaTiuhfgl_7AT9-10" value="" style="shape=mxgraph.signs.nature.venus;html=1;pointerEvents=1;fillColor=#3333FF;strokeColor=none;verticalLabelPosition=bottom;verticalAlign=top;align=center;sketch=0;" parent="1" vertex="1">
          <mxGeometry x="570" y="230" width="20" height="30" as="geometry" />
        </mxCell>
        <mxCell id="IyKs0MpaTiuhfgl_7AT9-11" value="&lt;b&gt;(2)&lt;/b&gt;&lt;div&gt;Brood&lt;/div&gt;" style="rounded=0;whiteSpace=wrap;html=1;strokeWidth=3;verticalAlign=top;" parent="1" vertex="1">
          <mxGeometry x="520" y="110" width="120" height="80" as="geometry" />
        </mxCell>
        <mxCell id="Ux2qAAe1gOKTnrGUfpTu-1" value="&lt;b&gt;(4)&lt;/b&gt;&lt;div&gt;Brood&lt;/div&gt;" style="rounded=0;whiteSpace=wrap;html=1;strokeWidth=3;horizontal=1;verticalAlign=top;" parent="1" vertex="1">
          <mxGeometry x="970" y="190" width="80" height="80" as="geometry" />
        </mxCell>
        <mxCell id="Ux2qAAe1gOKTnrGUfpTu-2" value="" style="shape=mxgraph.signs.nature.venus;html=1;pointerEvents=1;fillColor=#3333FF;strokeColor=none;verticalLabelPosition=bottom;verticalAlign=top;align=center;sketch=0;" parent="1" vertex="1">
          <mxGeometry x="1000" y="230" width="20" height="30" as="geometry" />
        </mxCell>
        <mxCell id="Ux2qAAe1gOKTnrGUfpTu-7" value="" style="shape=flexArrow;endArrow=classic;html=1;rounded=0;" parent="1" edge="1">
          <mxGeometry width="50" height="50" relative="1" as="geometry">
            <mxPoint x="710" y="200" as="sourcePoint" />
            <mxPoint x="750" y="200" as="targetPoint" />
          </mxGeometry>
        </mxCell>
        <mxCell id="Ux2qAAe1gOKTnrGUfpTu-9" value="&lt;span style=&quot;&quot;&gt;Parent hive (1) (2) (3) stays in the same location, the queen and some brood and food frames are moved to a nuc in a new location.&lt;/span&gt;" style="text;html=1;align=center;verticalAlign=middle;whiteSpace=wrap;rounded=0;" parent="1" vertex="1">
          <mxGeometry x="801.25" y="320" width="277.5" height="30" as="geometry" />
        </mxCell>
        <mxCell id="Ux2qAAe1gOKTnrGUfpTu-20" value="&lt;b&gt;(3)&lt;/b&gt;&lt;div&gt;Honey Super&lt;/div&gt;" style="rounded=0;whiteSpace=wrap;html=1;strokeWidth=3;verticalAlign=top;" parent="1" vertex="1">
          <mxGeometry x="520" y="60" width="120" height="50" as="geometry" />
        </mxCell>
        <mxCell id="Ux2qAAe1gOKTnrGUfpTu-23" value="&lt;b&gt;(1)&lt;/b&gt;&lt;div&gt;Brood&lt;/div&gt;" style="rounded=0;whiteSpace=wrap;html=1;strokeWidth=3;horizontal=1;verticalAlign=top;" parent="1" vertex="1">
          <mxGeometry x="810" y="190" width="120" height="80" as="geometry" />
        </mxCell>
        <mxCell id="Ux2qAAe1gOKTnrGUfpTu-25" value="&lt;b&gt;(2)&lt;/b&gt;&lt;div&gt;Brood&lt;/div&gt;" style="rounded=0;whiteSpace=wrap;html=1;strokeWidth=3;verticalAlign=top;" parent="1" vertex="1">
          <mxGeometry x="810" y="110" width="120" height="80" as="geometry" />
        </mxCell>
        <mxCell id="Ux2qAAe1gOKTnrGUfpTu-26" value="&lt;b&gt;(3)&lt;/b&gt;&lt;div&gt;Honey Super&lt;/div&gt;" style="rounded=0;whiteSpace=wrap;html=1;strokeWidth=3;verticalAlign=top;" parent="1" vertex="1">
          <mxGeometry x="810" y="60" width="120" height="50" as="geometry" />
        </mxCell>
        <mxCell id="Ux2qAAe1gOKTnrGUfpTu-43" value="End situation" style="rounded=1;whiteSpace=wrap;html=1;verticalAlign=top;fillStyle=auto;gradientColor=none;dashed=1;" parent="1" vertex="1">
          <mxGeometry x="1170" y="-10" width="320" height="310" as="geometry" />
        </mxCell>
        <mxCell id="Ux2qAAe1gOKTnrGUfpTu-44" value="&lt;b&gt;(4)&lt;/b&gt;&lt;div&gt;Brood&lt;/div&gt;" style="rounded=0;whiteSpace=wrap;html=1;strokeWidth=3;horizontal=1;verticalAlign=top;" parent="1" vertex="1">
          <mxGeometry x="1370" y="190" width="80" height="80" as="geometry" />
        </mxCell>
        <mxCell id="Ux2qAAe1gOKTnrGUfpTu-45" value="" style="shape=mxgraph.signs.nature.venus;html=1;pointerEvents=1;fillColor=#3333FF;strokeColor=none;verticalLabelPosition=bottom;verticalAlign=top;align=center;sketch=0;" parent="1" vertex="1">
          <mxGeometry x="1400" y="230" width="20" height="30" as="geometry" />
        </mxCell>
        <mxCell id="Ux2qAAe1gOKTnrGUfpTu-46" value="&lt;span style=&quot;&quot;&gt;A new queen is reared in the parent hive.&amp;nbsp;&lt;/span&gt;" style="text;html=1;align=center;verticalAlign=middle;whiteSpace=wrap;rounded=0;" parent="1" vertex="1">
          <mxGeometry x="1255" y="310" width="150" height="30" as="geometry" />
        </mxCell>
        <mxCell id="Ux2qAAe1gOKTnrGUfpTu-47" value="&lt;b&gt;(1)&lt;/b&gt;&lt;div&gt;Brood&lt;/div&gt;" style="rounded=0;whiteSpace=wrap;html=1;strokeWidth=3;horizontal=1;verticalAlign=top;" parent="1" vertex="1">
          <mxGeometry x="1210" y="190" width="120" height="80" as="geometry" />
        </mxCell>
        <mxCell id="Ux2qAAe1gOKTnrGUfpTu-48" value="&lt;b&gt;(2)&lt;/b&gt;&lt;div&gt;Brood&lt;/div&gt;" style="rounded=0;whiteSpace=wrap;html=1;strokeWidth=3;verticalAlign=top;" parent="1" vertex="1">
          <mxGeometry x="1210" y="110" width="120" height="80" as="geometry" />
        </mxCell>
        <mxCell id="Ux2qAAe1gOKTnrGUfpTu-49" value="&lt;b&gt;(3)&lt;/b&gt;&lt;div&gt;Honey Super&lt;/div&gt;" style="rounded=0;whiteSpace=wrap;html=1;strokeWidth=3;verticalAlign=top;" parent="1" vertex="1">
          <mxGeometry x="1210" y="60" width="120" height="50" as="geometry" />
        </mxCell>
        <mxCell id="Ux2qAAe1gOKTnrGUfpTu-50" value="" style="shape=flexArrow;endArrow=classic;html=1;rounded=0;" parent="1" edge="1">
          <mxGeometry width="50" height="50" relative="1" as="geometry">
            <mxPoint x="1110" y="200" as="sourcePoint" />
            <mxPoint x="1150" y="200" as="targetPoint" />
          </mxGeometry>
        </mxCell>
        <mxCell id="Ux2qAAe1gOKTnrGUfpTu-51" value="" style="shape=mxgraph.signs.nature.venus;html=1;pointerEvents=1;fillColor=#009900;strokeColor=none;verticalLabelPosition=bottom;verticalAlign=top;align=center;sketch=0;" parent="1" vertex="1">
          <mxGeometry x="1260" y="229.38" width="20" height="30" as="geometry" />
        </mxCell>
        <mxCell id="Ux2qAAe1gOKTnrGUfpTu-57" value="foundation comb" style="shape=process;whiteSpace=wrap;html=1;backgroundOutline=1;rotation=-90;textDirection=ltr;direction=west;size=0.032747663551402684;" parent="1" vertex="1">
          <mxGeometry x="80.42" y="139.54" width="174.06" height="35" as="geometry" />
        </mxCell>
        <mxCell id="Ux2qAAe1gOKTnrGUfpTu-58" value="brood : BRIAS" style="shape=process;whiteSpace=wrap;html=1;backgroundOutline=1;rotation=-90;textDirection=ltr;direction=west;size=0.032747663551402684;" parent="1" vertex="1">
          <mxGeometry x="130.58" y="139.53999999999996" width="174.06" height="35" as="geometry" />
        </mxCell>
        <mxCell id="Ux2qAAe1gOKTnrGUfpTu-59" value="brood : BRIAS" style="shape=process;whiteSpace=wrap;html=1;backgroundOutline=1;rotation=-90;textDirection=ltr;direction=west;size=0.032747663551402684;" parent="1" vertex="1">
          <mxGeometry x="180.58" y="139.53999999999996" width="174.06" height="35" as="geometry" />
        </mxCell>
        <mxCell id="Ux2qAAe1gOKTnrGUfpTu-60" value="drawn out comb" style="shape=process;whiteSpace=wrap;html=1;backgroundOutline=1;rotation=-90;textDirection=ltr;direction=west;size=0.032747663551402684;" parent="1" vertex="1">
          <mxGeometry x="230.58" y="139.85999999999996" width="174.06" height="35" as="geometry" />
        </mxCell>
        <mxCell id="Ux2qAAe1gOKTnrGUfpTu-61" value="pollen" style="shape=process;whiteSpace=wrap;html=1;backgroundOutline=1;rotation=-90;textDirection=ltr;direction=west;size=0.032747663551402684;" parent="1" vertex="1">
          <mxGeometry x="280.58" y="139.53999999999996" width="174.06" height="35" as="geometry" />
        </mxCell>
        <mxCell id="Ux2qAAe1gOKTnrGUfpTu-53" value="" style="shape=mxgraph.signs.nature.venus;html=1;pointerEvents=1;fillColor=#3333FF;strokeColor=none;verticalLabelPosition=bottom;verticalAlign=top;align=center;labelBackgroundColor=none;labelBorderColor=none;textShadow=0;gradientColor=none;shadow=0;" parent="1" vertex="1">
          <mxGeometry x="257.60999999999996" y="203" width="20" height="30" as="geometry" />
        </mxCell>
        <mxCell id="Ux2qAAe1gOKTnrGUfpTu-62" value="Intermediate situation" style="rounded=1;whiteSpace=wrap;html=1;verticalAlign=top;fillStyle=auto;gradientColor=none;dashed=1;" parent="1" vertex="1">
          <mxGeometry x="820" y="1010" width="320" height="310" as="geometry" />
        </mxCell>
        <mxCell id="Ux2qAAe1gOKTnrGUfpTu-63" value="Begin situation" style="rounded=1;whiteSpace=wrap;html=1;verticalAlign=top;fillStyle=auto;gradientColor=none;dashed=1;" parent="1" vertex="1">
          <mxGeometry x="520" y="1010" width="220" height="310" as="geometry" />
        </mxCell>
        <mxCell id="Ux2qAAe1gOKTnrGUfpTu-64" value="&lt;b&gt;(1)&lt;/b&gt;&lt;div&gt;Brood&lt;/div&gt;" style="rounded=0;whiteSpace=wrap;html=1;strokeWidth=3;horizontal=1;verticalAlign=top;" parent="1" vertex="1">
          <mxGeometry x="570" y="1210" width="120" height="80" as="geometry" />
        </mxCell>
        <mxCell id="Ux2qAAe1gOKTnrGUfpTu-65" value="" style="shape=mxgraph.signs.nature.venus;html=1;pointerEvents=1;fillColor=#3333FF;strokeColor=none;verticalLabelPosition=bottom;verticalAlign=top;align=center;sketch=0;" parent="1" vertex="1">
          <mxGeometry x="620" y="1250" width="20" height="30" as="geometry" />
        </mxCell>
        <mxCell id="Ux2qAAe1gOKTnrGUfpTu-66" value="&lt;b&gt;(2)&lt;/b&gt;&lt;div&gt;Brood&lt;/div&gt;" style="rounded=0;whiteSpace=wrap;html=1;strokeWidth=3;verticalAlign=top;" parent="1" vertex="1">
          <mxGeometry x="570" y="1130" width="120" height="80" as="geometry" />
        </mxCell>
        <mxCell id="Ux2qAAe1gOKTnrGUfpTu-67" value="&lt;b&gt;(4)&lt;/b&gt;&lt;div&gt;Brood&lt;/div&gt;" style="rounded=0;whiteSpace=wrap;html=1;strokeWidth=3;horizontal=1;verticalAlign=top;" parent="1" vertex="1">
          <mxGeometry x="1020" y="1210" width="50" height="80" as="geometry" />
        </mxCell>
        <mxCell id="Ux2qAAe1gOKTnrGUfpTu-69" value="" style="shape=flexArrow;endArrow=classic;html=1;rounded=0;" parent="1" edge="1">
          <mxGeometry width="50" height="50" relative="1" as="geometry">
            <mxPoint x="760" y="1220" as="sourcePoint" />
            <mxPoint x="800" y="1220" as="targetPoint" />
          </mxGeometry>
        </mxCell>
        <mxCell id="Ux2qAAe1gOKTnrGUfpTu-70" value="&lt;span style=&quot;&quot;&gt;Parent hive (1) (2) (3) stays in the same location, the queen cells are moved to a small nuc in a new location.&lt;/span&gt;" style="text;html=1;align=center;verticalAlign=middle;whiteSpace=wrap;rounded=0;" parent="1" vertex="1">
          <mxGeometry x="852.5" y="1330" width="277.5" height="30" as="geometry" />
        </mxCell>
        <mxCell id="Ux2qAAe1gOKTnrGUfpTu-71" value="&lt;b&gt;(3)&lt;/b&gt;&lt;div&gt;Honey Super&lt;/div&gt;" style="rounded=0;whiteSpace=wrap;html=1;strokeWidth=3;verticalAlign=top;" parent="1" vertex="1">
          <mxGeometry x="570" y="1080" width="120" height="50" as="geometry" />
        </mxCell>
        <mxCell id="Ux2qAAe1gOKTnrGUfpTu-72" value="&lt;b&gt;(1)&lt;/b&gt;&lt;div&gt;Brood&lt;/div&gt;" style="rounded=0;whiteSpace=wrap;html=1;strokeWidth=3;horizontal=1;verticalAlign=top;" parent="1" vertex="1">
          <mxGeometry x="860" y="1210" width="120" height="80" as="geometry" />
        </mxCell>
        <mxCell id="Ux2qAAe1gOKTnrGUfpTu-73" value="&lt;b&gt;(2)&lt;/b&gt;&lt;div&gt;Brood&lt;/div&gt;" style="rounded=0;whiteSpace=wrap;html=1;strokeWidth=3;verticalAlign=top;" parent="1" vertex="1">
          <mxGeometry x="860" y="1130" width="120" height="80" as="geometry" />
        </mxCell>
        <mxCell id="Ux2qAAe1gOKTnrGUfpTu-74" value="&lt;b&gt;(3)&lt;/b&gt;&lt;div&gt;Honey Super&lt;/div&gt;" style="rounded=0;whiteSpace=wrap;html=1;strokeWidth=3;verticalAlign=top;" parent="1" vertex="1">
          <mxGeometry x="860" y="1080" width="120" height="50" as="geometry" />
        </mxCell>
        <mxCell id="Ux2qAAe1gOKTnrGUfpTu-68" value="" style="shape=mxgraph.signs.nature.venus;html=1;pointerEvents=1;fillColor=#3333FF;strokeColor=none;verticalLabelPosition=bottom;verticalAlign=top;align=center;sketch=0;" parent="1" vertex="1">
          <mxGeometry x="910" y="1250" width="20" height="30" as="geometry" />
        </mxCell>
        <mxCell id="Ux2qAAe1gOKTnrGUfpTu-80" value="" style="shape=mxgraph.signs.nature.sun_1;html=1;pointerEvents=1;fillColor=#d5e8d4;strokeColor=#82b366;verticalLabelPosition=bottom;verticalAlign=top;align=center;sketch=0;strokeWidth=1;" parent="1" vertex="1">
          <mxGeometry x="1024" y="1245" width="20" height="20" as="geometry" />
        </mxCell>
        <mxCell id="Ux2qAAe1gOKTnrGUfpTu-81" value="" style="shape=mxgraph.signs.nature.sun_1;html=1;pointerEvents=1;fillColor=#d5e8d4;strokeColor=#82b366;verticalLabelPosition=bottom;verticalAlign=top;align=center;sketch=0;" parent="1" vertex="1">
          <mxGeometry x="1046" y="1245" width="20" height="20" as="geometry" />
        </mxCell>
        <mxCell id="Ux2qAAe1gOKTnrGUfpTu-82" value="" style="shape=mxgraph.signs.nature.sun_1;html=1;pointerEvents=1;fillColor=#d5e8d4;strokeColor=#82b366;verticalLabelPosition=bottom;verticalAlign=top;align=center;sketch=0;direction=west;" parent="1" vertex="1">
          <mxGeometry x="1024" y="1267" width="20" height="20" as="geometry" />
        </mxCell>
        <mxCell id="Ux2qAAe1gOKTnrGUfpTu-83" value="" style="shape=mxgraph.signs.nature.sun_1;html=1;pointerEvents=1;fillColor=#d5e8d4;strokeColor=#82b366;verticalLabelPosition=bottom;verticalAlign=top;align=center;sketch=0;" parent="1" vertex="1">
          <mxGeometry x="1046" y="1267" width="20" height="20" as="geometry" />
        </mxCell>
        <mxCell id="Ux2qAAe1gOKTnrGUfpTu-84" value="" style="shape=mxgraph.signs.nature.sun_1;html=1;pointerEvents=1;fillColor=#d5e8d4;strokeColor=#82b366;verticalLabelPosition=bottom;verticalAlign=top;align=center;sketch=0;" parent="1" vertex="1">
          <mxGeometry x="650" y="1244" width="20" height="20" as="geometry" />
        </mxCell>
        <mxCell id="Ux2qAAe1gOKTnrGUfpTu-85" value="" style="shape=mxgraph.signs.nature.sun_1;html=1;pointerEvents=1;fillColor=#d5e8d4;strokeColor=#82b366;verticalLabelPosition=bottom;verticalAlign=top;align=center;sketch=0;" parent="1" vertex="1">
          <mxGeometry x="590" y="1244" width="20" height="20" as="geometry" />
        </mxCell>
        <mxCell id="Ux2qAAe1gOKTnrGUfpTu-86" value="" style="shape=mxgraph.signs.nature.sun_1;html=1;pointerEvents=1;fillColor=#d5e8d4;strokeColor=#82b366;verticalLabelPosition=bottom;verticalAlign=top;align=center;sketch=0;direction=west;" parent="1" vertex="1">
          <mxGeometry x="650" y="1266" width="20" height="20" as="geometry" />
        </mxCell>
        <mxCell id="Ux2qAAe1gOKTnrGUfpTu-87" value="" style="shape=mxgraph.signs.nature.sun_1;html=1;pointerEvents=1;fillColor=#d5e8d4;strokeColor=#82b366;verticalLabelPosition=bottom;verticalAlign=top;align=center;sketch=0;" parent="1" vertex="1">
          <mxGeometry x="590" y="1266" width="20" height="20" as="geometry" />
        </mxCell>
        <mxCell id="Ux2qAAe1gOKTnrGUfpTu-88" value="End situation" style="rounded=1;whiteSpace=wrap;html=1;verticalAlign=top;fillStyle=auto;gradientColor=none;dashed=1;" parent="1" vertex="1">
          <mxGeometry x="1220" y="1010" width="320" height="310" as="geometry" />
        </mxCell>
        <mxCell id="Ux2qAAe1gOKTnrGUfpTu-89" value="&lt;b&gt;(4)&lt;/b&gt;&lt;div&gt;Brood&lt;/div&gt;" style="rounded=0;whiteSpace=wrap;html=1;strokeWidth=3;horizontal=1;verticalAlign=top;" parent="1" vertex="1">
          <mxGeometry x="1420" y="1210" width="50" height="80" as="geometry" />
        </mxCell>
        <mxCell id="Ux2qAAe1gOKTnrGUfpTu-90" value="" style="shape=flexArrow;endArrow=classic;html=1;rounded=0;" parent="1" edge="1">
          <mxGeometry width="50" height="50" relative="1" as="geometry">
            <mxPoint x="1160" y="1220" as="sourcePoint" />
            <mxPoint x="1200" y="1220" as="targetPoint" />
          </mxGeometry>
        </mxCell>
        <mxCell id="Ux2qAAe1gOKTnrGUfpTu-91" value="&lt;span style=&quot;&quot;&gt;The queens hatch from their cell,&amp;nbsp;&lt;/span&gt;&lt;div&gt;&lt;span style=&quot;&quot;&gt;and only one survives.&lt;/span&gt;&lt;/div&gt;" style="text;html=1;align=center;verticalAlign=middle;whiteSpace=wrap;rounded=0;" parent="1" vertex="1">
          <mxGeometry x="1252.5" y="1330" width="277.5" height="30" as="geometry" />
        </mxCell>
        <mxCell id="Ux2qAAe1gOKTnrGUfpTu-92" value="&lt;b&gt;(1)&lt;/b&gt;&lt;div&gt;Brood&lt;/div&gt;" style="rounded=0;whiteSpace=wrap;html=1;strokeWidth=3;horizontal=1;verticalAlign=top;" parent="1" vertex="1">
          <mxGeometry x="1260" y="1210" width="120" height="80" as="geometry" />
        </mxCell>
        <mxCell id="Ux2qAAe1gOKTnrGUfpTu-93" value="&lt;b&gt;(2)&lt;/b&gt;&lt;div&gt;Brood&lt;/div&gt;" style="rounded=0;whiteSpace=wrap;html=1;strokeWidth=3;verticalAlign=top;" parent="1" vertex="1">
          <mxGeometry x="1260" y="1130" width="120" height="80" as="geometry" />
        </mxCell>
        <mxCell id="Ux2qAAe1gOKTnrGUfpTu-94" value="&lt;b&gt;(3)&lt;/b&gt;&lt;div&gt;Honey Super&lt;/div&gt;" style="rounded=0;whiteSpace=wrap;html=1;strokeWidth=3;verticalAlign=top;" parent="1" vertex="1">
          <mxGeometry x="1260" y="1080" width="120" height="50" as="geometry" />
        </mxCell>
        <mxCell id="Ux2qAAe1gOKTnrGUfpTu-95" value="" style="shape=mxgraph.signs.nature.venus;html=1;pointerEvents=1;fillColor=#3333FF;strokeColor=none;verticalLabelPosition=bottom;verticalAlign=top;align=center;sketch=0;" parent="1" vertex="1">
          <mxGeometry x="1310" y="1250" width="20" height="30" as="geometry" />
        </mxCell>
        <mxCell id="Ux2qAAe1gOKTnrGUfpTu-100" value="" style="shape=mxgraph.signs.nature.venus;html=1;pointerEvents=1;fillColor=#009900;strokeColor=none;verticalLabelPosition=bottom;verticalAlign=top;align=center;sketch=0;" parent="1" vertex="1">
          <mxGeometry x="1435" y="1250" width="20" height="30" as="geometry" />
        </mxCell>
        <mxCell id="Ux2qAAe1gOKTnrGUfpTu-102" value="&lt;div style=&quot;box-sizing: border-box; margin: 0px; padding: 0px; direction: ltr;&quot; class=&quot;paragraph data-line-571&quot;&gt;&lt;p style=&quot;box-sizing: border-box; margin: 0px 0px 1.25rem; padding: 0px; direction: ltr; text-rendering: optimizelegibility; letter-spacing: -0.01em;&quot;&gt;&lt;font face=&quot;Helvetica&quot;&gt;There is a queen right hive with plenty of brood and food.&lt;/font&gt;&lt;/p&gt;&lt;div style=&quot;font-size: 14px; font-family: -apple-system, &amp;quot;system-ui&amp;quot;, &amp;quot;Segoe WPC&amp;quot;, &amp;quot;Segoe UI&amp;quot;, HelveticaNeue-Light, Ubuntu, &amp;quot;Droid Sans&amp;quot;, sans-serif;&quot;&gt;&lt;br&gt;&lt;/div&gt;&lt;/div&gt;&lt;div style=&quot;box-sizing: border-box; margin: 0px; padding: 0px; direction: ltr; font-family: -apple-system, &amp;quot;system-ui&amp;quot;, &amp;quot;Segoe WPC&amp;quot;, &amp;quot;Segoe UI&amp;quot;, HelveticaNeue-Light, Ubuntu, &amp;quot;Droid Sans&amp;quot;, sans-serif; font-size: 14px; text-align: start;&quot; class=&quot;paragraph data-line-574&quot;&gt;&lt;/div&gt;" style="text;html=1;align=center;verticalAlign=middle;whiteSpace=wrap;rounded=0;" parent="1" vertex="1">
          <mxGeometry x="460.63" y="330" width="238.75" height="30" as="geometry" />
        </mxCell>
        <mxCell id="Ux2qAAe1gOKTnrGUfpTu-103" value="&lt;div style=&quot;box-sizing: border-box; margin: 0px; padding: 0px; direction: ltr;&quot; class=&quot;paragraph data-line-571&quot;&gt;&lt;p style=&quot;box-sizing: border-box; margin: 0px 0px 1.25rem; padding: 0px; direction: ltr; text-rendering: optimizelegibility; letter-spacing: -0.01em;&quot;&gt;&lt;font face=&quot;Helvetica&quot;&gt;There is a queen right hive with plenty of brood and food, and queen cells (in green)&lt;/font&gt;&lt;/p&gt;&lt;div style=&quot;font-size: 14px; font-family: -apple-system, &amp;quot;system-ui&amp;quot;, &amp;quot;Segoe WPC&amp;quot;, &amp;quot;Segoe UI&amp;quot;, HelveticaNeue-Light, Ubuntu, &amp;quot;Droid Sans&amp;quot;, sans-serif;&quot;&gt;&lt;br&gt;&lt;/div&gt;&lt;/div&gt;&lt;div style=&quot;box-sizing: border-box; margin: 0px; padding: 0px; direction: ltr; font-family: -apple-system, &amp;quot;system-ui&amp;quot;, &amp;quot;Segoe WPC&amp;quot;, &amp;quot;Segoe UI&amp;quot;, HelveticaNeue-Light, Ubuntu, &amp;quot;Droid Sans&amp;quot;, sans-serif; font-size: 14px; text-align: start;&quot; class=&quot;paragraph data-line-574&quot;&gt;&lt;/div&gt;" style="text;html=1;align=center;verticalAlign=middle;whiteSpace=wrap;rounded=0;" parent="1" vertex="1">
          <mxGeometry x="510.62" y="1350" width="238.75" height="30" as="geometry" />
        </mxCell>
        <mxCell id="Ux2qAAe1gOKTnrGUfpTu-105" value="" style="rounded=0;whiteSpace=wrap;html=1;strokeWidth=3;" parent="1" vertex="1">
          <mxGeometry x="59.84" y="1040" width="180.32" height="210" as="geometry" />
        </mxCell>
        <mxCell id="Ux2qAAe1gOKTnrGUfpTu-106" value="honey" style="shape=process;whiteSpace=wrap;html=1;backgroundOutline=1;rotation=-90;textDirection=ltr;direction=west;size=0.032747663551402684;" parent="1" vertex="1">
          <mxGeometry x="10" y="1129.8600000000001" width="174.7" height="35" as="geometry" />
        </mxCell>
        <mxCell id="Ux2qAAe1gOKTnrGUfpTu-108" value="brood : BRIAS" style="shape=process;whiteSpace=wrap;html=1;backgroundOutline=1;rotation=-90;textDirection=ltr;direction=west;size=0.032747663551402684;" parent="1" vertex="1">
          <mxGeometry x="59.84" y="1129.86" width="174.06" height="35" as="geometry" />
        </mxCell>
        <mxCell id="Ux2qAAe1gOKTnrGUfpTu-113" value="pollen" style="shape=process;whiteSpace=wrap;html=1;backgroundOutline=1;rotation=-90;textDirection=ltr;direction=west;size=0.032747663551402684;" parent="1" vertex="1">
          <mxGeometry x="110.16" y="1129.8600000000001" width="174.7" height="35" as="geometry" />
        </mxCell>
        <mxCell id="Ux2qAAe1gOKTnrGUfpTu-114" value="" style="shape=mxgraph.signs.nature.sun_1;html=1;pointerEvents=1;fillColor=#d5e8d4;strokeColor=#82b366;verticalLabelPosition=bottom;verticalAlign=top;align=center;sketch=0;" parent="1" vertex="1">
          <mxGeometry x="132.16" y="1206" width="20" height="20" as="geometry" />
        </mxCell>
        <mxCell id="Ux2qAAe1gOKTnrGUfpTu-115" value="" style="shape=mxgraph.signs.nature.sun_1;html=1;pointerEvents=1;fillColor=#d5e8d4;strokeColor=#82b366;verticalLabelPosition=bottom;verticalAlign=top;align=center;sketch=0;" parent="1" vertex="1">
          <mxGeometry x="132.16" y="1068" width="20" height="20" as="geometry" />
        </mxCell>
        <mxCell id="Ux2qAAe1gOKTnrGUfpTu-116" value="" style="shape=mxgraph.signs.nature.sun_1;html=1;pointerEvents=1;fillColor=#d5e8d4;strokeColor=#82b366;verticalLabelPosition=bottom;verticalAlign=top;align=center;sketch=0;" parent="1" vertex="1">
          <mxGeometry x="142.16" y="1083" width="20" height="20" as="geometry" />
        </mxCell>
        <mxCell id="Ux2qAAe1gOKTnrGUfpTu-117" value="" style="shape=mxgraph.signs.nature.sun_1;html=1;pointerEvents=1;fillColor=#d5e8d4;strokeColor=#82b366;verticalLabelPosition=bottom;verticalAlign=top;align=center;sketch=0;" parent="1" vertex="1">
          <mxGeometry x="142.16" y="1191" width="20" height="20" as="geometry" />
        </mxCell>
        <mxCell id="Ux2qAAe1gOKTnrGUfpTu-118" value="" style="rounded=0;whiteSpace=wrap;html=1;strokeWidth=3;" parent="1" vertex="1">
          <mxGeometry x="77.89" y="470" width="320" height="210" as="geometry" />
        </mxCell>
        <mxCell id="Ux2qAAe1gOKTnrGUfpTu-119" value="honey" style="shape=process;whiteSpace=wrap;html=1;backgroundOutline=1;rotation=-90;textDirection=ltr;direction=west;size=0.032747663551402684;" parent="1" vertex="1">
          <mxGeometry x="28.049999999999997" y="559.86" width="174.7" height="35" as="geometry" />
        </mxCell>
        <mxCell id="Ux2qAAe1gOKTnrGUfpTu-120" value="foundation comb" style="shape=process;whiteSpace=wrap;html=1;backgroundOutline=1;rotation=-90;textDirection=ltr;direction=west;size=0.032747663551402684;" parent="1" vertex="1">
          <mxGeometry x="77.73" y="559.54" width="174.06" height="35" as="geometry" />
        </mxCell>
        <mxCell id="Ux2qAAe1gOKTnrGUfpTu-121" value="brood : BRIAS" style="shape=process;whiteSpace=wrap;html=1;backgroundOutline=1;rotation=-90;textDirection=ltr;direction=west;size=0.032747663551402684;" parent="1" vertex="1">
          <mxGeometry x="127.89" y="559.54" width="174.06" height="35" as="geometry" />
        </mxCell>
        <mxCell id="Ux2qAAe1gOKTnrGUfpTu-123" value="brood: BRIAS" style="shape=process;whiteSpace=wrap;html=1;backgroundOutline=1;rotation=-90;textDirection=ltr;direction=west;size=0.032747663551402684;" parent="1" vertex="1">
          <mxGeometry x="176.51999999999998" y="560.18" width="174.06" height="35" as="geometry" />
        </mxCell>
        <mxCell id="Ux2qAAe1gOKTnrGUfpTu-124" value="drawn out comb" style="shape=process;whiteSpace=wrap;html=1;backgroundOutline=1;rotation=-90;textDirection=ltr;direction=west;size=0.032747663551402684;" parent="1" vertex="1">
          <mxGeometry x="226.51999999999998" y="559.86" width="174.06" height="35" as="geometry" />
        </mxCell>
        <mxCell id="Ux2qAAe1gOKTnrGUfpTu-126" value="&lt;span style=&quot;&quot;&gt;Cursus&lt;/span&gt;" style="text;html=1;align=center;verticalAlign=middle;whiteSpace=wrap;rounded=0;" parent="1" vertex="1">
          <mxGeometry x="90.58" y="2.842170943040401e-14" width="277.5" height="30" as="geometry" />
        </mxCell>
        <mxCell id="Ux2qAAe1gOKTnrGUfpTu-127" value="&lt;span style=&quot;&quot;&gt;Randy Oliver: add queen cell after 24 hours&lt;/span&gt;" style="text;html=1;align=center;verticalAlign=middle;whiteSpace=wrap;rounded=0;" parent="1" vertex="1">
          <mxGeometry x="87.89" y="440" width="277.5" height="30" as="geometry" />
        </mxCell>
        <mxCell id="Ux2qAAe1gOKTnrGUfpTu-132" value="" style="rounded=0;whiteSpace=wrap;html=1;strokeWidth=3;" parent="1" vertex="1">
          <mxGeometry x="319.84000000000003" y="1040" width="180.32" height="210" as="geometry" />
        </mxCell>
        <mxCell id="Ux2qAAe1gOKTnrGUfpTu-134" value="brood : BRIAS" style="shape=process;whiteSpace=wrap;html=1;backgroundOutline=1;rotation=-90;textDirection=ltr;direction=west;size=0.032747663551402684;" parent="1" vertex="1">
          <mxGeometry x="322.97" y="1129.86" width="174.06" height="35" as="geometry" />
        </mxCell>
        <mxCell id="Ux2qAAe1gOKTnrGUfpTu-136" value="" style="shape=mxgraph.signs.nature.sun_1;html=1;pointerEvents=1;fillColor=#d5e8d4;strokeColor=#82b366;verticalLabelPosition=bottom;verticalAlign=top;align=center;sketch=0;" parent="1" vertex="1">
          <mxGeometry x="395.28999999999996" y="1206" width="20" height="20" as="geometry" />
        </mxCell>
        <mxCell id="Ux2qAAe1gOKTnrGUfpTu-137" value="" style="shape=mxgraph.signs.nature.sun_1;html=1;pointerEvents=1;fillColor=#d5e8d4;strokeColor=#82b366;verticalLabelPosition=bottom;verticalAlign=top;align=center;sketch=0;" parent="1" vertex="1">
          <mxGeometry x="395.28999999999996" y="1068" width="20" height="20" as="geometry" />
        </mxCell>
        <mxCell id="Ux2qAAe1gOKTnrGUfpTu-138" value="" style="shape=mxgraph.signs.nature.sun_1;html=1;pointerEvents=1;fillColor=#d5e8d4;strokeColor=#82b366;verticalLabelPosition=bottom;verticalAlign=top;align=center;sketch=0;" parent="1" vertex="1">
          <mxGeometry x="405.28999999999996" y="1083" width="20" height="20" as="geometry" />
        </mxCell>
        <mxCell id="Ux2qAAe1gOKTnrGUfpTu-139" value="" style="shape=mxgraph.signs.nature.sun_1;html=1;pointerEvents=1;fillColor=#d5e8d4;strokeColor=#82b366;verticalLabelPosition=bottom;verticalAlign=top;align=center;sketch=0;" parent="1" vertex="1">
          <mxGeometry x="405.28999999999996" y="1191" width="20" height="20" as="geometry" />
        </mxCell>
        <mxCell id="Ux2qAAe1gOKTnrGUfpTu-140" value="&lt;div style=&quot;box-sizing: border-box; margin: 0px; padding: 0px; direction: ltr;&quot; class=&quot;paragraph data-line-571&quot;&gt;&lt;p style=&quot;box-sizing: border-box; margin: 0px 0px 1.25rem; padding: 0px; direction: ltr; text-rendering: optimizelegibility; letter-spacing: -0.01em;&quot;&gt;OR:&lt;/p&gt;&lt;/div&gt;&lt;div style=&quot;box-sizing: border-box; margin: 0px; padding: 0px; direction: ltr; font-family: -apple-system, &amp;quot;system-ui&amp;quot;, &amp;quot;Segoe WPC&amp;quot;, &amp;quot;Segoe UI&amp;quot;, HelveticaNeue-Light, Ubuntu, &amp;quot;Droid Sans&amp;quot;, sans-serif; font-size: 14px; text-align: start;&quot; class=&quot;paragraph data-line-574&quot;&gt;&lt;/div&gt;" style="text;html=1;align=center;verticalAlign=middle;whiteSpace=wrap;rounded=0;" parent="1" vertex="1">
          <mxGeometry x="161.25000000000003" y="1155" width="238.75" height="30" as="geometry" />
        </mxCell>
        <mxCell id="Ux2qAAe1gOKTnrGUfpTu-147" value="brood : BRIAS" style="shape=process;whiteSpace=wrap;html=1;backgroundOutline=1;rotation=-90;textDirection=ltr;direction=west;size=0.032747663551402684;" parent="1" vertex="1">
          <mxGeometry x="372.32000000000005" y="1129.86" width="174.06" height="35" as="geometry" />
        </mxCell>
        <mxCell id="Ux2qAAe1gOKTnrGUfpTu-148" value="" style="shape=mxgraph.signs.nature.sun_1;html=1;pointerEvents=1;fillColor=#d5e8d4;strokeColor=#82b366;verticalLabelPosition=bottom;verticalAlign=top;align=center;sketch=0;" parent="1" vertex="1">
          <mxGeometry x="444.64" y="1206" width="20" height="20" as="geometry" />
        </mxCell>
        <mxCell id="Ux2qAAe1gOKTnrGUfpTu-149" value="" style="shape=mxgraph.signs.nature.sun_1;html=1;pointerEvents=1;fillColor=#d5e8d4;strokeColor=#82b366;verticalLabelPosition=bottom;verticalAlign=top;align=center;sketch=0;" parent="1" vertex="1">
          <mxGeometry x="444.64" y="1068" width="20" height="20" as="geometry" />
        </mxCell>
        <mxCell id="Ux2qAAe1gOKTnrGUfpTu-150" value="" style="shape=mxgraph.signs.nature.sun_1;html=1;pointerEvents=1;fillColor=#d5e8d4;strokeColor=#82b366;verticalLabelPosition=bottom;verticalAlign=top;align=center;sketch=0;" parent="1" vertex="1">
          <mxGeometry x="454.64" y="1083" width="20" height="20" as="geometry" />
        </mxCell>
        <mxCell id="Ux2qAAe1gOKTnrGUfpTu-151" value="" style="shape=mxgraph.signs.nature.sun_1;html=1;pointerEvents=1;fillColor=#d5e8d4;strokeColor=#82b366;verticalLabelPosition=bottom;verticalAlign=top;align=center;sketch=0;" parent="1" vertex="1">
          <mxGeometry x="454.64" y="1191" width="20" height="20" as="geometry" />
        </mxCell>
        <mxCell id="Ux2qAAe1gOKTnrGUfpTu-153" value="Intermediate situation" style="rounded=1;whiteSpace=wrap;html=1;verticalAlign=top;fillStyle=auto;gradientColor=none;dashed=1;" parent="1" vertex="1">
          <mxGeometry x="774.01" y="410" width="320" height="310" as="geometry" />
        </mxCell>
        <mxCell id="Ux2qAAe1gOKTnrGUfpTu-154" value="Begin situation" style="rounded=1;whiteSpace=wrap;html=1;verticalAlign=top;fillStyle=auto;gradientColor=none;dashed=1;" parent="1" vertex="1">
          <mxGeometry x="474.01" y="410" width="220" height="310" as="geometry" />
        </mxCell>
        <mxCell id="Ux2qAAe1gOKTnrGUfpTu-155" value="&lt;b&gt;(1)&lt;/b&gt;&lt;div&gt;Brood&lt;/div&gt;" style="rounded=0;whiteSpace=wrap;html=1;strokeWidth=3;horizontal=1;verticalAlign=top;" parent="1" vertex="1">
          <mxGeometry x="524.01" y="610" width="120" height="80" as="geometry" />
        </mxCell>
        <mxCell id="Ux2qAAe1gOKTnrGUfpTu-156" value="" style="shape=mxgraph.signs.nature.venus;html=1;pointerEvents=1;fillColor=#3333FF;strokeColor=none;verticalLabelPosition=bottom;verticalAlign=top;align=center;sketch=0;" parent="1" vertex="1">
          <mxGeometry x="574.01" y="650" width="20" height="30" as="geometry" />
        </mxCell>
        <mxCell id="Ux2qAAe1gOKTnrGUfpTu-157" value="&lt;b&gt;(2)&lt;/b&gt;&lt;div&gt;Brood&lt;/div&gt;" style="rounded=0;whiteSpace=wrap;html=1;strokeWidth=3;verticalAlign=top;" parent="1" vertex="1">
          <mxGeometry x="524.01" y="530" width="120" height="80" as="geometry" />
        </mxCell>
        <mxCell id="Ux2qAAe1gOKTnrGUfpTu-158" value="&lt;b&gt;(4)&lt;/b&gt;&lt;div&gt;Brood&lt;/div&gt;" style="rounded=0;whiteSpace=wrap;html=1;strokeWidth=3;horizontal=1;verticalAlign=top;" parent="1" vertex="1">
          <mxGeometry x="974.01" y="610" width="80" height="80" as="geometry" />
        </mxCell>
        <mxCell id="Ux2qAAe1gOKTnrGUfpTu-160" value="" style="shape=flexArrow;endArrow=classic;html=1;rounded=0;" parent="1" edge="1">
          <mxGeometry width="50" height="50" relative="1" as="geometry">
            <mxPoint x="714.01" y="620" as="sourcePoint" />
            <mxPoint x="754.01" y="620" as="targetPoint" />
          </mxGeometry>
        </mxCell>
        <mxCell id="Ux2qAAe1gOKTnrGUfpTu-161" value="&lt;span style=&quot;&quot;&gt;Parent hive (1) (2) (3) stays in the same location, some brood and food frames are moved to a nuc in a new location. The nuc stays queenless for 24 hours in a new location. After that, a frame with queen cell(s) is inserted in the nuc.&lt;/span&gt;" style="text;html=1;align=center;verticalAlign=middle;whiteSpace=wrap;rounded=0;" parent="1" vertex="1">
          <mxGeometry x="801.25" y="750" width="277.5" height="30" as="geometry" />
        </mxCell>
        <mxCell id="Ux2qAAe1gOKTnrGUfpTu-162" value="&lt;b&gt;(3)&lt;/b&gt;&lt;div&gt;Honey Super&lt;/div&gt;" style="rounded=0;whiteSpace=wrap;html=1;strokeWidth=3;verticalAlign=top;" parent="1" vertex="1">
          <mxGeometry x="524.01" y="480" width="120" height="50" as="geometry" />
        </mxCell>
        <mxCell id="Ux2qAAe1gOKTnrGUfpTu-163" value="&lt;b&gt;(1)&lt;/b&gt;&lt;div&gt;Brood&lt;/div&gt;" style="rounded=0;whiteSpace=wrap;html=1;strokeWidth=3;horizontal=1;verticalAlign=top;" parent="1" vertex="1">
          <mxGeometry x="814.01" y="610" width="120" height="80" as="geometry" />
        </mxCell>
        <mxCell id="Ux2qAAe1gOKTnrGUfpTu-164" value="&lt;b&gt;(2)&lt;/b&gt;&lt;div&gt;Brood&lt;/div&gt;" style="rounded=0;whiteSpace=wrap;html=1;strokeWidth=3;verticalAlign=top;" parent="1" vertex="1">
          <mxGeometry x="814.01" y="530" width="120" height="80" as="geometry" />
        </mxCell>
        <mxCell id="Ux2qAAe1gOKTnrGUfpTu-165" value="&lt;b&gt;(3)&lt;/b&gt;&lt;div&gt;Honey Super&lt;/div&gt;" style="rounded=0;whiteSpace=wrap;html=1;strokeWidth=3;verticalAlign=top;" parent="1" vertex="1">
          <mxGeometry x="814.01" y="480" width="120" height="50" as="geometry" />
        </mxCell>
        <mxCell id="Ux2qAAe1gOKTnrGUfpTu-166" value="End situation" style="rounded=1;whiteSpace=wrap;html=1;verticalAlign=top;fillStyle=auto;gradientColor=none;dashed=1;" parent="1" vertex="1">
          <mxGeometry x="1174.01" y="410" width="320" height="310" as="geometry" />
        </mxCell>
        <mxCell id="Ux2qAAe1gOKTnrGUfpTu-167" value="&lt;b&gt;(4)&lt;/b&gt;&lt;div&gt;Brood&lt;/div&gt;" style="rounded=0;whiteSpace=wrap;html=1;strokeWidth=3;horizontal=1;verticalAlign=top;" parent="1" vertex="1">
          <mxGeometry x="1374.01" y="610" width="80" height="80" as="geometry" />
        </mxCell>
        <mxCell id="Ux2qAAe1gOKTnrGUfpTu-169" value="The queens hatch from their cell,&amp;nbsp;&lt;div&gt;and only one survives.&lt;/div&gt;" style="text;html=1;align=center;verticalAlign=middle;whiteSpace=wrap;rounded=0;" parent="1" vertex="1">
          <mxGeometry x="1219.5" y="730" width="220.99" height="30" as="geometry" />
        </mxCell>
        <mxCell id="Ux2qAAe1gOKTnrGUfpTu-170" value="&lt;b&gt;(1)&lt;/b&gt;&lt;div&gt;Brood&lt;/div&gt;" style="rounded=0;whiteSpace=wrap;html=1;strokeWidth=3;horizontal=1;verticalAlign=top;" parent="1" vertex="1">
          <mxGeometry x="1214.01" y="610" width="120" height="80" as="geometry" />
        </mxCell>
        <mxCell id="Ux2qAAe1gOKTnrGUfpTu-171" value="&lt;b&gt;(2)&lt;/b&gt;&lt;div&gt;Brood&lt;/div&gt;" style="rounded=0;whiteSpace=wrap;html=1;strokeWidth=3;verticalAlign=top;" parent="1" vertex="1">
          <mxGeometry x="1214.01" y="530" width="120" height="80" as="geometry" />
        </mxCell>
        <mxCell id="Ux2qAAe1gOKTnrGUfpTu-172" value="&lt;b&gt;(3)&lt;/b&gt;&lt;div&gt;Honey Super&lt;/div&gt;" style="rounded=0;whiteSpace=wrap;html=1;strokeWidth=3;verticalAlign=top;" parent="1" vertex="1">
          <mxGeometry x="1214.01" y="480" width="120" height="50" as="geometry" />
        </mxCell>
        <mxCell id="Ux2qAAe1gOKTnrGUfpTu-173" value="" style="shape=flexArrow;endArrow=classic;html=1;rounded=0;" parent="1" edge="1">
          <mxGeometry width="50" height="50" relative="1" as="geometry">
            <mxPoint x="1114.01" y="620" as="sourcePoint" />
            <mxPoint x="1154.01" y="620" as="targetPoint" />
          </mxGeometry>
        </mxCell>
        <mxCell id="Ux2qAAe1gOKTnrGUfpTu-174" value="" style="shape=mxgraph.signs.nature.venus;html=1;pointerEvents=1;fillColor=#009900;strokeColor=none;verticalLabelPosition=bottom;verticalAlign=top;align=center;sketch=0;" parent="1" vertex="1">
          <mxGeometry x="1404.01" y="650" width="20" height="30" as="geometry" />
        </mxCell>
        <mxCell id="Ux2qAAe1gOKTnrGUfpTu-175" value="&lt;div style=&quot;box-sizing: border-box; margin: 0px; padding: 0px; direction: ltr;&quot; class=&quot;paragraph data-line-571&quot;&gt;&lt;p style=&quot;box-sizing: border-box; margin: 0px 0px 1.25rem; padding: 0px; direction: ltr; text-rendering: optimizelegibility; letter-spacing: -0.01em;&quot;&gt;&lt;font face=&quot;Helvetica&quot;&gt;There is a queen right hive with plenty of brood and food, and one or more queen cells.&lt;/font&gt;&lt;/p&gt;&lt;div style=&quot;font-size: 14px; font-family: -apple-system, &amp;quot;system-ui&amp;quot;, &amp;quot;Segoe WPC&amp;quot;, &amp;quot;Segoe UI&amp;quot;, HelveticaNeue-Light, Ubuntu, &amp;quot;Droid Sans&amp;quot;, sans-serif;&quot;&gt;&lt;br&gt;&lt;/div&gt;&lt;/div&gt;&lt;div style=&quot;box-sizing: border-box; margin: 0px; padding: 0px; direction: ltr; font-family: -apple-system, &amp;quot;system-ui&amp;quot;, &amp;quot;Segoe WPC&amp;quot;, &amp;quot;Segoe UI&amp;quot;, HelveticaNeue-Light, Ubuntu, &amp;quot;Droid Sans&amp;quot;, sans-serif; font-size: 14px; text-align: start;&quot; class=&quot;paragraph data-line-574&quot;&gt;&lt;/div&gt;" style="text;html=1;align=center;verticalAlign=middle;whiteSpace=wrap;rounded=0;" parent="1" vertex="1">
          <mxGeometry x="464.64" y="750" width="238.75" height="30" as="geometry" />
        </mxCell>
        <mxCell id="Ux2qAAe1gOKTnrGUfpTu-176" value="" style="shape=mxgraph.signs.nature.sun_1;html=1;pointerEvents=1;fillColor=#d5e8d4;strokeColor=#82b366;verticalLabelPosition=bottom;verticalAlign=top;align=center;sketch=0;" parent="1" vertex="1">
          <mxGeometry x="609" y="645" width="20" height="20" as="geometry" />
        </mxCell>
        <mxCell id="Ux2qAAe1gOKTnrGUfpTu-177" value="" style="shape=mxgraph.signs.nature.sun_1;html=1;pointerEvents=1;fillColor=#d5e8d4;strokeColor=#82b366;verticalLabelPosition=bottom;verticalAlign=top;align=center;sketch=0;" parent="1" vertex="1">
          <mxGeometry x="609" y="667" width="20" height="20" as="geometry" />
        </mxCell>
        <mxCell id="Ux2qAAe1gOKTnrGUfpTu-159" value="" style="shape=mxgraph.signs.nature.venus;html=1;pointerEvents=1;fillColor=#3333FF;strokeColor=none;verticalLabelPosition=bottom;verticalAlign=top;align=center;sketch=0;" parent="1" vertex="1">
          <mxGeometry x="864.01" y="650" width="20" height="30" as="geometry" />
        </mxCell>
        <mxCell id="Ux2qAAe1gOKTnrGUfpTu-179" value="" style="shape=mxgraph.signs.nature.sun_1;html=1;pointerEvents=1;fillColor=#d5e8d4;strokeColor=#82b366;verticalLabelPosition=bottom;verticalAlign=top;align=center;sketch=0;" parent="1" vertex="1">
          <mxGeometry x="1004.01" y="667" width="20" height="20" as="geometry" />
        </mxCell>
        <mxCell id="Ux2qAAe1gOKTnrGUfpTu-180" value="" style="shape=mxgraph.signs.nature.sun_1;html=1;pointerEvents=1;fillColor=#d5e8d4;strokeColor=#82b366;verticalLabelPosition=bottom;verticalAlign=top;align=center;sketch=0;" parent="1" vertex="1">
          <mxGeometry x="1004.01" y="645" width="20" height="20" as="geometry" />
        </mxCell>
        <mxCell id="Ux2qAAe1gOKTnrGUfpTu-168" value="" style="shape=mxgraph.signs.nature.venus;html=1;pointerEvents=1;fillColor=#3333FF;strokeColor=none;verticalLabelPosition=bottom;verticalAlign=top;align=center;sketch=0;" parent="1" vertex="1">
          <mxGeometry x="1264.01" y="650" width="20" height="30" as="geometry" />
        </mxCell>
        <mxCell id="Ux2qAAe1gOKTnrGUfpTu-186" value="" style="rounded=0;whiteSpace=wrap;html=1;strokeWidth=3;" parent="1" vertex="1">
          <mxGeometry x="75.78" y="790" width="320" height="210" as="geometry" />
        </mxCell>
        <mxCell id="Ux2qAAe1gOKTnrGUfpTu-187" value="honey" style="shape=process;whiteSpace=wrap;html=1;backgroundOutline=1;rotation=-90;textDirection=ltr;direction=west;size=0.032747663551402684;" parent="1" vertex="1">
          <mxGeometry x="25.939999999999998" y="879.86" width="174.7" height="35" as="geometry" />
        </mxCell>
        <mxCell id="Ux2qAAe1gOKTnrGUfpTu-188" value="foundation comb" style="shape=process;whiteSpace=wrap;html=1;backgroundOutline=1;rotation=-90;textDirection=ltr;direction=west;size=0.032747663551402684;" parent="1" vertex="1">
          <mxGeometry x="75.62" y="879.54" width="174.06" height="35" as="geometry" />
        </mxCell>
        <mxCell id="Ux2qAAe1gOKTnrGUfpTu-189" value="brood : BRIAS" style="shape=process;whiteSpace=wrap;html=1;backgroundOutline=1;rotation=-90;textDirection=ltr;direction=west;size=0.032747663551402684;" parent="1" vertex="1">
          <mxGeometry x="125.77999999999999" y="879.54" width="174.06" height="35" as="geometry" />
        </mxCell>
        <mxCell id="Ux2qAAe1gOKTnrGUfpTu-190" value="brood : BRIAS" style="shape=process;whiteSpace=wrap;html=1;backgroundOutline=1;rotation=-90;textDirection=ltr;direction=west;size=0.032747663551402684;" parent="1" vertex="1">
          <mxGeometry x="175.77999999999997" y="879.54" width="174.06" height="35" as="geometry" />
        </mxCell>
        <mxCell id="Ux2qAAe1gOKTnrGUfpTu-191" value="brood: BRIAS" style="shape=process;whiteSpace=wrap;html=1;backgroundOutline=1;rotation=-90;textDirection=ltr;direction=west;size=0.032747663551402684;" parent="1" vertex="1">
          <mxGeometry x="225.77999999999997" y="879.8599999999999" width="174.06" height="35" as="geometry" />
        </mxCell>
        <mxCell id="Ux2qAAe1gOKTnrGUfpTu-192" value="drawn out comb" style="shape=process;whiteSpace=wrap;html=1;backgroundOutline=1;rotation=-90;textDirection=ltr;direction=west;size=0.032747663551402684;" parent="1" vertex="1">
          <mxGeometry x="275.78" y="879.54" width="174.06" height="35" as="geometry" />
        </mxCell>
        <mxCell id="Ux2qAAe1gOKTnrGUfpTu-193" value="" style="shape=mxgraph.signs.nature.sun_1;html=1;pointerEvents=1;fillColor=#d5e8d4;strokeColor=#82b366;verticalLabelPosition=bottom;verticalAlign=top;align=center;sketch=0;" parent="1" vertex="1">
          <mxGeometry x="253.77999999999997" y="953" width="20" height="20" as="geometry" />
        </mxCell>
        <mxCell id="Ux2qAAe1gOKTnrGUfpTu-194" value="" style="shape=mxgraph.signs.nature.sun_1;html=1;pointerEvents=1;fillColor=#d5e8d4;strokeColor=#82b366;verticalLabelPosition=bottom;verticalAlign=top;align=center;sketch=0;" parent="1" vertex="1">
          <mxGeometry x="253.77999999999997" y="823" width="20" height="20" as="geometry" />
        </mxCell>
        <mxCell id="Ux2qAAe1gOKTnrGUfpTu-195" value="" style="shape=flexArrow;endArrow=classic;html=1;rounded=0;" parent="1" edge="1">
          <mxGeometry width="50" height="50" relative="1" as="geometry">
            <mxPoint x="239.05" y="717" as="sourcePoint" />
            <mxPoint x="239.07999999999998" y="760" as="targetPoint" />
          </mxGeometry>
        </mxCell>
        <mxCell id="Ux2qAAe1gOKTnrGUfpTu-196" value="Intermediate situation" style="rounded=1;whiteSpace=wrap;html=1;verticalAlign=top;fillStyle=auto;gradientColor=none;dashed=1;" parent="1" vertex="1">
          <mxGeometry x="780" y="1800" width="320" height="310" as="geometry" />
        </mxCell>
        <mxCell id="Ux2qAAe1gOKTnrGUfpTu-197" value="Begin situation" style="rounded=1;whiteSpace=wrap;html=1;verticalAlign=top;fillStyle=auto;gradientColor=none;dashed=1;" parent="1" vertex="1">
          <mxGeometry x="480" y="1800" width="220" height="310" as="geometry" />
        </mxCell>
        <mxCell id="Ux2qAAe1gOKTnrGUfpTu-198" value="" style="rounded=0;whiteSpace=wrap;html=1;strokeWidth=3;" parent="1" vertex="1">
          <mxGeometry x="-110" y="1860" width="520.58" height="210" as="geometry" />
        </mxCell>
        <mxCell id="Ux2qAAe1gOKTnrGUfpTu-200" value="&lt;b&gt;(1)&lt;/b&gt;&lt;div&gt;Brood&lt;/div&gt;" style="rounded=0;whiteSpace=wrap;html=1;strokeWidth=3;horizontal=1;verticalAlign=top;" parent="1" vertex="1">
          <mxGeometry x="530" y="2000" width="120" height="80" as="geometry" />
        </mxCell>
        <mxCell id="Ux2qAAe1gOKTnrGUfpTu-201" value="" style="shape=mxgraph.signs.nature.venus;html=1;pointerEvents=1;fillColor=#3333FF;strokeColor=none;verticalLabelPosition=bottom;verticalAlign=top;align=center;sketch=0;" parent="1" vertex="1">
          <mxGeometry x="580" y="2040" width="20" height="30" as="geometry" />
        </mxCell>
        <mxCell id="Ux2qAAe1gOKTnrGUfpTu-202" value="&lt;b&gt;(2)&lt;/b&gt;&lt;div&gt;Brood&lt;/div&gt;" style="rounded=0;whiteSpace=wrap;html=1;strokeWidth=3;verticalAlign=top;" parent="1" vertex="1">
          <mxGeometry x="530" y="1920" width="120" height="80" as="geometry" />
        </mxCell>
        <mxCell id="Ux2qAAe1gOKTnrGUfpTu-205" value="" style="shape=flexArrow;endArrow=classic;html=1;rounded=0;" parent="1" edge="1">
          <mxGeometry width="50" height="50" relative="1" as="geometry">
            <mxPoint x="720" y="2010" as="sourcePoint" />
            <mxPoint x="760" y="2010" as="targetPoint" />
          </mxGeometry>
        </mxCell>
        <mxCell id="Ux2qAAe1gOKTnrGUfpTu-206" value="&lt;span style=&quot;&quot;&gt;Parent hive (1) moves to a new location, &lt;br&gt;the queen and some food and brood frames are moved to a new box in the parent&#39;s location with the honey super.&amp;nbsp;&lt;/span&gt;" style="text;html=1;align=center;verticalAlign=middle;whiteSpace=wrap;rounded=0;" parent="1" vertex="1">
          <mxGeometry x="812.5" y="2140" width="277.5" height="30" as="geometry" />
        </mxCell>
        <mxCell id="Ux2qAAe1gOKTnrGUfpTu-207" value="&lt;b&gt;(3)&lt;/b&gt;&lt;div&gt;Honey Super&lt;/div&gt;" style="rounded=0;whiteSpace=wrap;html=1;strokeWidth=3;verticalAlign=top;" parent="1" vertex="1">
          <mxGeometry x="530" y="1870" width="120" height="50" as="geometry" />
        </mxCell>
        <mxCell id="Ux2qAAe1gOKTnrGUfpTu-208" value="&lt;b&gt;(1)&lt;/b&gt;&lt;div&gt;Brood&lt;/div&gt;" style="rounded=0;whiteSpace=wrap;html=1;strokeWidth=3;horizontal=1;verticalAlign=top;" parent="1" vertex="1">
          <mxGeometry x="951.88" y="2000" width="120" height="80" as="geometry" />
        </mxCell>
        <mxCell id="Ux2qAAe1gOKTnrGUfpTu-210" value="&lt;b&gt;(3)&lt;/b&gt;&lt;div&gt;Honey Super&lt;/div&gt;" style="rounded=0;whiteSpace=wrap;html=1;strokeWidth=3;verticalAlign=top;" parent="1" vertex="1">
          <mxGeometry x="818.38" y="1949.54" width="120" height="50" as="geometry" />
        </mxCell>
        <mxCell id="Ux2qAAe1gOKTnrGUfpTu-211" value="End situation" style="rounded=1;whiteSpace=wrap;html=1;verticalAlign=top;fillStyle=auto;gradientColor=none;dashed=1;" parent="1" vertex="1">
          <mxGeometry x="1180" y="1800" width="320" height="310" as="geometry" />
        </mxCell>
        <mxCell id="Ux2qAAe1gOKTnrGUfpTu-214" value="&lt;span style=&quot;&quot;&gt;A new queen is reared in the parent hive at the new location&lt;/span&gt;" style="text;html=1;align=center;verticalAlign=middle;whiteSpace=wrap;rounded=0;" parent="1" vertex="1">
          <mxGeometry x="1265" y="2130" width="150" height="30" as="geometry" />
        </mxCell>
        <mxCell id="Ux2qAAe1gOKTnrGUfpTu-218" value="" style="shape=flexArrow;endArrow=classic;html=1;rounded=0;" parent="1" edge="1">
          <mxGeometry width="50" height="50" relative="1" as="geometry">
            <mxPoint x="1120" y="2010" as="sourcePoint" />
            <mxPoint x="1160" y="2010" as="targetPoint" />
          </mxGeometry>
        </mxCell>
        <mxCell id="Ux2qAAe1gOKTnrGUfpTu-220" value="drawn out comb" style="shape=process;whiteSpace=wrap;html=1;backgroundOutline=1;rotation=-90;textDirection=ltr;direction=west;size=0.032747663551402684;" parent="1" vertex="1">
          <mxGeometry x="139.60999999999999" y="1949.54" width="174.06" height="35" as="geometry" />
        </mxCell>
        <mxCell id="Ux2qAAe1gOKTnrGUfpTu-221" value="brood : BRIAS" style="shape=process;whiteSpace=wrap;html=1;backgroundOutline=1;rotation=-90;textDirection=ltr;direction=west;size=0.032747663551402684;" parent="1" vertex="1">
          <mxGeometry x="90.58000000000001" y="1949.86" width="174.06" height="35" as="geometry" />
        </mxCell>
        <mxCell id="Ux2qAAe1gOKTnrGUfpTu-222" value="brood : BRIAS" style="shape=process;whiteSpace=wrap;html=1;backgroundOutline=1;rotation=-90;textDirection=ltr;direction=west;size=0.032747663551402684;" parent="1" vertex="1">
          <mxGeometry x="40" y="1949.86" width="174.06" height="35" as="geometry" />
        </mxCell>
        <mxCell id="Ux2qAAe1gOKTnrGUfpTu-223" value="drawn out comb" style="shape=process;whiteSpace=wrap;html=1;backgroundOutline=1;rotation=-90;textDirection=ltr;direction=west;size=0.032747663551402684;" parent="1" vertex="1">
          <mxGeometry x="240.58" y="1949.86" width="174.06" height="35" as="geometry" />
        </mxCell>
        <mxCell id="Ux2qAAe1gOKTnrGUfpTu-224" value="drawn out comb" style="shape=process;whiteSpace=wrap;html=1;backgroundOutline=1;rotation=-90;textDirection=ltr;direction=west;size=0.032747663551402684;" parent="1" vertex="1">
          <mxGeometry x="290.58" y="1949.54" width="174.06" height="35" as="geometry" />
        </mxCell>
        <mxCell id="Ux2qAAe1gOKTnrGUfpTu-225" value="" style="shape=mxgraph.signs.nature.venus;html=1;pointerEvents=1;fillColor=#3333FF;strokeColor=none;verticalLabelPosition=bottom;verticalAlign=top;align=center;labelBackgroundColor=none;labelBorderColor=none;textShadow=0;gradientColor=none;shadow=0;" parent="1" vertex="1">
          <mxGeometry x="117.02999999999994" y="2013.32" width="20" height="30" as="geometry" />
        </mxCell>
        <mxCell id="Ux2qAAe1gOKTnrGUfpTu-227" value="&lt;b&gt;(4)&lt;/b&gt;&lt;div&gt;Brood&lt;/div&gt;" style="rounded=0;whiteSpace=wrap;html=1;strokeWidth=3;horizontal=1;verticalAlign=top;" parent="1" vertex="1">
          <mxGeometry x="818.38" y="2000" width="120" height="80" as="geometry" />
        </mxCell>
        <mxCell id="Ux2qAAe1gOKTnrGUfpTu-204" value="" style="shape=mxgraph.signs.nature.venus;html=1;pointerEvents=1;fillColor=#3333FF;strokeColor=none;verticalLabelPosition=bottom;verticalAlign=top;align=center;sketch=0;" parent="1" vertex="1">
          <mxGeometry x="868.38" y="2040" width="20" height="30" as="geometry" />
        </mxCell>
        <mxCell id="Ux2qAAe1gOKTnrGUfpTu-231" value="&lt;b&gt;(1)&lt;/b&gt;&lt;div&gt;Brood&lt;/div&gt;" style="rounded=0;whiteSpace=wrap;html=1;strokeWidth=3;horizontal=1;verticalAlign=top;" parent="1" vertex="1">
          <mxGeometry x="1346.75" y="2000.32" width="120" height="80" as="geometry" />
        </mxCell>
        <mxCell id="Ux2qAAe1gOKTnrGUfpTu-232" value="&lt;b&gt;(3)&lt;/b&gt;&lt;div&gt;Honey Super&lt;/div&gt;" style="rounded=0;whiteSpace=wrap;html=1;strokeWidth=3;verticalAlign=top;" parent="1" vertex="1">
          <mxGeometry x="1213.25" y="1949.86" width="120" height="50" as="geometry" />
        </mxCell>
        <mxCell id="Ux2qAAe1gOKTnrGUfpTu-233" value="&lt;b&gt;(4)&lt;/b&gt;&lt;div&gt;Brood&lt;/div&gt;" style="rounded=0;whiteSpace=wrap;html=1;strokeWidth=3;horizontal=1;verticalAlign=top;" parent="1" vertex="1">
          <mxGeometry x="1213.25" y="2000.32" width="120" height="80" as="geometry" />
        </mxCell>
        <mxCell id="Ux2qAAe1gOKTnrGUfpTu-234" value="" style="shape=mxgraph.signs.nature.venus;html=1;pointerEvents=1;fillColor=#3333FF;strokeColor=none;verticalLabelPosition=bottom;verticalAlign=top;align=center;sketch=0;" parent="1" vertex="1">
          <mxGeometry x="1263.25" y="2040.32" width="20" height="30" as="geometry" />
        </mxCell>
        <mxCell id="Ux2qAAe1gOKTnrGUfpTu-219" value="" style="shape=mxgraph.signs.nature.venus;html=1;pointerEvents=1;fillColor=#009900;strokeColor=none;verticalLabelPosition=bottom;verticalAlign=top;align=center;sketch=0;" parent="1" vertex="1">
          <mxGeometry x="1396.75" y="2040" width="20" height="30" as="geometry" />
        </mxCell>
        <mxCell id="Ux2qAAe1gOKTnrGUfpTu-235" value="drawn out comb" style="shape=process;whiteSpace=wrap;html=1;backgroundOutline=1;rotation=-90;textDirection=ltr;direction=west;size=0.032747663551402684;" parent="1" vertex="1">
          <mxGeometry x="188.26" y="1949.8600000000001" width="174.06" height="35" as="geometry" />
        </mxCell>
        <mxCell id="Ux2qAAe1gOKTnrGUfpTu-236" value="drawn out comb" style="shape=process;whiteSpace=wrap;html=1;backgroundOutline=1;rotation=-90;textDirection=ltr;direction=west;size=0.032747663551402684;" parent="1" vertex="1">
          <mxGeometry x="-11.899999999999991" y="1949.86" width="174.06" height="35" as="geometry" />
        </mxCell>
        <mxCell id="Ux2qAAe1gOKTnrGUfpTu-237" value="drawn out comb" style="shape=process;whiteSpace=wrap;html=1;backgroundOutline=1;rotation=-90;textDirection=ltr;direction=west;size=0.032747663551402684;" parent="1" vertex="1">
          <mxGeometry x="-63.89999999999999" y="1949.86" width="174.06" height="35" as="geometry" />
        </mxCell>
        <mxCell id="Ux2qAAe1gOKTnrGUfpTu-238" value="drawn out comb" style="shape=process;whiteSpace=wrap;html=1;backgroundOutline=1;rotation=-90;textDirection=ltr;direction=west;size=0.032747663551402684;" parent="1" vertex="1">
          <mxGeometry x="-114.21999999999997" y="1949.86" width="174.06" height="35" as="geometry" />
        </mxCell>
        <mxCell id="Ux2qAAe1gOKTnrGUfpTu-239" value="drawn out comb" style="shape=process;whiteSpace=wrap;html=1;backgroundOutline=1;rotation=-90;textDirection=ltr;direction=west;size=0.032747663551402684;" parent="1" vertex="1">
          <mxGeometry x="-164.06" y="1949.54" width="174.06" height="35" as="geometry" />
        </mxCell>
        <mxCell id="Ux2qAAe1gOKTnrGUfpTu-240" value="" style="rounded=0;whiteSpace=wrap;html=1;strokeWidth=3;" parent="1" vertex="1">
          <mxGeometry x="-110.28999999999999" y="1610" width="520.58" height="210" as="geometry" />
        </mxCell>
        <mxCell id="Ux2qAAe1gOKTnrGUfpTu-241" value="drawn out comb" style="shape=process;whiteSpace=wrap;html=1;backgroundOutline=1;rotation=-90;textDirection=ltr;direction=west;size=0.032747663551402684;" parent="1" vertex="1">
          <mxGeometry x="139.32" y="1699.54" width="174.06" height="35" as="geometry" />
        </mxCell>
        <mxCell id="Ux2qAAe1gOKTnrGUfpTu-242" value="drawn out comb" style="shape=process;whiteSpace=wrap;html=1;backgroundOutline=1;rotation=-90;textDirection=ltr;direction=west;size=0.032747663551402684;" parent="1" vertex="1">
          <mxGeometry x="90.29000000000002" y="1699.86" width="174.06" height="35" as="geometry" />
        </mxCell>
        <mxCell id="Ux2qAAe1gOKTnrGUfpTu-243" value="drawn out comb" style="shape=process;whiteSpace=wrap;html=1;backgroundOutline=1;rotation=-90;textDirection=ltr;direction=west;size=0.032747663551402684;" parent="1" vertex="1">
          <mxGeometry x="39.71" y="1699.86" width="174.06" height="35" as="geometry" />
        </mxCell>
        <mxCell id="Ux2qAAe1gOKTnrGUfpTu-244" value="drawn out comb" style="shape=process;whiteSpace=wrap;html=1;backgroundOutline=1;rotation=-90;textDirection=ltr;direction=west;size=0.032747663551402684;" parent="1" vertex="1">
          <mxGeometry x="240.29000000000002" y="1699.86" width="174.06" height="35" as="geometry" />
        </mxCell>
        <mxCell id="Ux2qAAe1gOKTnrGUfpTu-245" value="drawn out comb" style="shape=process;whiteSpace=wrap;html=1;backgroundOutline=1;rotation=-90;textDirection=ltr;direction=west;size=0.032747663551402684;" parent="1" vertex="1">
          <mxGeometry x="290.28999999999996" y="1699.54" width="174.06" height="35" as="geometry" />
        </mxCell>
        <mxCell id="Ux2qAAe1gOKTnrGUfpTu-247" value="drawn out comb" style="shape=process;whiteSpace=wrap;html=1;backgroundOutline=1;rotation=-90;textDirection=ltr;direction=west;size=0.032747663551402684;" parent="1" vertex="1">
          <mxGeometry x="187.97" y="1699.8600000000001" width="174.06" height="35" as="geometry" />
        </mxCell>
        <mxCell id="Ux2qAAe1gOKTnrGUfpTu-248" value="drawn out comb" style="shape=process;whiteSpace=wrap;html=1;backgroundOutline=1;rotation=-90;textDirection=ltr;direction=west;size=0.032747663551402684;" parent="1" vertex="1">
          <mxGeometry x="-12.18999999999999" y="1699.86" width="174.06" height="35" as="geometry" />
        </mxCell>
        <mxCell id="Ux2qAAe1gOKTnrGUfpTu-249" value="drawn out comb" style="shape=process;whiteSpace=wrap;html=1;backgroundOutline=1;rotation=-90;textDirection=ltr;direction=west;size=0.032747663551402684;" parent="1" vertex="1">
          <mxGeometry x="-64.19" y="1699.86" width="174.06" height="35" as="geometry" />
        </mxCell>
        <mxCell id="Ux2qAAe1gOKTnrGUfpTu-250" value="drawn out comb" style="shape=process;whiteSpace=wrap;html=1;backgroundOutline=1;rotation=-90;textDirection=ltr;direction=west;size=0.032747663551402684;" parent="1" vertex="1">
          <mxGeometry x="-114.50999999999996" y="1699.86" width="174.06" height="35" as="geometry" />
        </mxCell>
        <mxCell id="Ux2qAAe1gOKTnrGUfpTu-251" value="drawn out comb" style="shape=process;whiteSpace=wrap;html=1;backgroundOutline=1;rotation=-90;textDirection=ltr;direction=west;size=0.032747663551402684;" parent="1" vertex="1">
          <mxGeometry x="-164.35" y="1699.54" width="174.06" height="35" as="geometry" />
        </mxCell>
        <mxCell id="Ux2qAAe1gOKTnrGUfpTu-252" value="" style="line;strokeWidth=6;html=1;" parent="1" vertex="1">
          <mxGeometry x="-111.82" y="1833" width="524.22" height="10" as="geometry" />
        </mxCell>
        <mxCell id="k_ET9pbZi_g21xVmpFh6-2" value="January - April" style="rounded=1;whiteSpace=wrap;html=1;verticalAlign=top;fillStyle=auto;gradientColor=none;dashed=1;" parent="1" vertex="1">
          <mxGeometry x="474.64" y="2240" width="220" height="370" as="geometry" />
        </mxCell>
        <mxCell id="k_ET9pbZi_g21xVmpFh6-3" value="&lt;b&gt;(1)&lt;/b&gt;&lt;div&gt;Brood&lt;/div&gt;" style="rounded=0;whiteSpace=wrap;html=1;strokeWidth=3;horizontal=1;verticalAlign=top;" parent="1" vertex="1">
          <mxGeometry x="530" y="2500" width="120" height="80" as="geometry" />
        </mxCell>
        <mxCell id="k_ET9pbZi_g21xVmpFh6-4" value="" style="shape=mxgraph.signs.nature.venus;html=1;pointerEvents=1;fillColor=#3333FF;strokeColor=none;verticalLabelPosition=bottom;verticalAlign=top;align=center;sketch=0;" parent="1" vertex="1">
          <mxGeometry x="580" y="2540" width="20" height="30" as="geometry" />
        </mxCell>
        <mxCell id="k_ET9pbZi_g21xVmpFh6-6" value="" style="shape=flexArrow;endArrow=classic;html=1;rounded=0;" parent="1" edge="1">
          <mxGeometry width="50" height="50" relative="1" as="geometry">
            <mxPoint x="714.64" y="2510" as="sourcePoint" />
            <mxPoint x="754.64" y="2510" as="targetPoint" />
          </mxGeometry>
        </mxCell>
        <mxCell id="k_ET9pbZi_g21xVmpFh6-21" value="May - June" style="rounded=1;whiteSpace=wrap;html=1;verticalAlign=top;fillStyle=auto;gradientColor=none;dashed=1;" parent="1" vertex="1">
          <mxGeometry x="774.01" y="2240" width="220" height="370" as="geometry" />
        </mxCell>
        <mxCell id="k_ET9pbZi_g21xVmpFh6-22" value="&lt;b&gt;(1)&lt;/b&gt;&lt;div&gt;Brood&lt;/div&gt;" style="rounded=0;whiteSpace=wrap;html=1;strokeWidth=3;horizontal=1;verticalAlign=top;" parent="1" vertex="1">
          <mxGeometry x="831.88" y="2500" width="120" height="80" as="geometry" />
        </mxCell>
        <mxCell id="k_ET9pbZi_g21xVmpFh6-17" value="&lt;b&gt;(2)&lt;/b&gt;&lt;div&gt;Brood&lt;/div&gt;" style="rounded=0;whiteSpace=wrap;html=1;strokeWidth=3;verticalAlign=top;" parent="1" vertex="1">
          <mxGeometry x="831.8800000000001" y="2449.9999999999995" width="120" height="50" as="geometry" />
        </mxCell>
        <mxCell id="k_ET9pbZi_g21xVmpFh6-26" value="" style="shape=flexArrow;endArrow=classic;html=1;rounded=0;" parent="1" edge="1">
          <mxGeometry width="50" height="50" relative="1" as="geometry">
            <mxPoint x="1020" y="2510" as="sourcePoint" />
            <mxPoint x="1060" y="2510" as="targetPoint" />
          </mxGeometry>
        </mxCell>
        <mxCell id="k_ET9pbZi_g21xVmpFh6-27" value="June 10 - 20" style="rounded=1;whiteSpace=wrap;html=1;verticalAlign=top;fillStyle=auto;gradientColor=none;dashed=1;" parent="1" vertex="1">
          <mxGeometry x="1079.37" y="2240" width="220" height="370" as="geometry" />
        </mxCell>
        <mxCell id="k_ET9pbZi_g21xVmpFh6-28" value="&lt;b&gt;(1)&lt;/b&gt;&lt;div&gt;Brood&lt;/div&gt;" style="rounded=0;whiteSpace=wrap;html=1;strokeWidth=3;horizontal=1;verticalAlign=top;" parent="1" vertex="1">
          <mxGeometry x="1135" y="2500" width="120" height="80" as="geometry" />
        </mxCell>
        <mxCell id="k_ET9pbZi_g21xVmpFh6-29" value="" style="shape=mxgraph.signs.nature.venus;html=1;pointerEvents=1;fillColor=#3333FF;strokeColor=none;verticalLabelPosition=bottom;verticalAlign=top;align=center;sketch=0;" parent="1" vertex="1">
          <mxGeometry x="1185" y="2540" width="20" height="30" as="geometry" />
        </mxCell>
        <mxCell id="k_ET9pbZi_g21xVmpFh6-30" value="&lt;b&gt;(2)&lt;/b&gt;&lt;div&gt;Brood&lt;/div&gt;" style="rounded=0;whiteSpace=wrap;html=1;strokeWidth=3;verticalAlign=top;" parent="1" vertex="1">
          <mxGeometry x="1135.0000000000002" y="2431.9999999999995" width="120" height="50" as="geometry" />
        </mxCell>
        <mxCell id="k_ET9pbZi_g21xVmpFh6-31" value="Move the queen down to the brood box (1) and install a queen excluder.&amp;nbsp;" style="text;html=1;align=center;verticalAlign=middle;whiteSpace=wrap;rounded=0;" parent="1" vertex="1">
          <mxGeometry x="1106.87" y="2630" width="165" height="30" as="geometry" />
        </mxCell>
        <mxCell id="k_ET9pbZi_g21xVmpFh6-32" value="Add a honey super with drawn comb frames.&amp;nbsp;&lt;div&gt;Limit brood frames in the super box (2) to four frames by taking frames out once they contain brood.&lt;/div&gt;" style="text;html=1;align=center;verticalAlign=middle;whiteSpace=wrap;rounded=0;" parent="1" vertex="1">
          <mxGeometry x="784.01" y="2640" width="200" height="30" as="geometry" />
        </mxCell>
        <mxCell id="k_ET9pbZi_g21xVmpFh6-25" value="" style="line;strokeWidth=6;html=1;" parent="1" vertex="1">
          <mxGeometry x="1135" y="2486" width="118" height="10" as="geometry" />
        </mxCell>
        <mxCell id="k_ET9pbZi_g21xVmpFh6-40" value="" style="shape=flexArrow;endArrow=classic;html=1;rounded=0;" parent="1" edge="1">
          <mxGeometry width="50" height="50" relative="1" as="geometry">
            <mxPoint x="1320" y="2510" as="sourcePoint" />
            <mxPoint x="1360" y="2510" as="targetPoint" />
          </mxGeometry>
        </mxCell>
        <mxCell id="k_ET9pbZi_g21xVmpFh6-41" value="July" style="rounded=1;whiteSpace=wrap;html=1;verticalAlign=top;fillStyle=auto;gradientColor=none;dashed=1;" parent="1" vertex="1">
          <mxGeometry x="1379.37" y="2240" width="220" height="370" as="geometry" />
        </mxCell>
        <mxCell id="k_ET9pbZi_g21xVmpFh6-42" value="&lt;b&gt;(1)&lt;/b&gt;&lt;div&gt;Brood&lt;/div&gt;" style="rounded=0;whiteSpace=wrap;html=1;strokeWidth=3;horizontal=1;verticalAlign=top;" parent="1" vertex="1">
          <mxGeometry x="1435" y="2500" width="120" height="80" as="geometry" />
        </mxCell>
        <mxCell id="k_ET9pbZi_g21xVmpFh6-43" value="" style="shape=mxgraph.signs.nature.venus;html=1;pointerEvents=1;fillColor=#3333FF;strokeColor=none;verticalLabelPosition=bottom;verticalAlign=top;align=center;sketch=0;" parent="1" vertex="1">
          <mxGeometry x="1485" y="2540" width="20" height="30" as="geometry" />
        </mxCell>
        <mxCell id="k_ET9pbZi_g21xVmpFh6-44" value="&lt;b&gt;(2)&lt;/b&gt;&lt;div&gt;Honey&lt;/div&gt;" style="rounded=0;whiteSpace=wrap;html=1;strokeWidth=3;verticalAlign=top;" parent="1" vertex="1">
          <mxGeometry x="1435.0000000000002" y="2431.9999999999995" width="120" height="50" as="geometry" />
        </mxCell>
        <mxCell id="k_ET9pbZi_g21xVmpFh6-45" value="The brood in box (2) emerged, add another super when required." style="text;html=1;align=center;verticalAlign=middle;whiteSpace=wrap;rounded=0;" parent="1" vertex="1">
          <mxGeometry x="1401.5" y="2630" width="185" height="30" as="geometry" />
        </mxCell>
        <mxCell id="k_ET9pbZi_g21xVmpFh6-46" value="" style="line;strokeWidth=6;html=1;" parent="1" vertex="1">
          <mxGeometry x="1435" y="2486" width="118" height="10" as="geometry" />
        </mxCell>
        <mxCell id="k_ET9pbZi_g21xVmpFh6-47" value="&lt;b&gt;(3)&lt;/b&gt;&lt;div&gt;Honey&lt;/div&gt;" style="rounded=0;whiteSpace=wrap;html=1;strokeWidth=3;verticalAlign=top;" parent="1" vertex="1">
          <mxGeometry x="1435.0000000000002" y="2381.9999999999995" width="120" height="50" as="geometry" />
        </mxCell>
        <mxCell id="k_ET9pbZi_g21xVmpFh6-48" value="Coming out of winter, ensure the bees have enough food and feed with thin sucrose syrup if needed." style="text;html=1;align=center;verticalAlign=middle;whiteSpace=wrap;rounded=0;" parent="1" vertex="1">
          <mxGeometry x="497.03" y="2630" width="185" height="30" as="geometry" />
        </mxCell>
        <mxCell id="k_ET9pbZi_g21xVmpFh6-51" value="August" style="rounded=1;whiteSpace=wrap;html=1;verticalAlign=top;fillStyle=auto;gradientColor=none;dashed=1;" parent="1" vertex="1">
          <mxGeometry x="474.64" y="2740" width="220" height="370" as="geometry" />
        </mxCell>
        <mxCell id="k_ET9pbZi_g21xVmpFh6-54" value="" style="shape=flexArrow;endArrow=classic;html=1;rounded=0;" parent="1" edge="1">
          <mxGeometry width="50" height="50" relative="1" as="geometry">
            <mxPoint x="714.64" y="3010" as="sourcePoint" />
            <mxPoint x="754.64" y="3010" as="targetPoint" />
          </mxGeometry>
        </mxCell>
        <mxCell id="k_ET9pbZi_g21xVmpFh6-55" value="September" style="rounded=1;whiteSpace=wrap;html=1;verticalAlign=top;fillStyle=auto;gradientColor=none;dashed=1;" parent="1" vertex="1">
          <mxGeometry x="774.01" y="2740" width="220" height="370" as="geometry" />
        </mxCell>
        <mxCell id="k_ET9pbZi_g21xVmpFh6-56" value="&lt;b&gt;(1)&lt;/b&gt;&lt;div&gt;Brood&lt;/div&gt;" style="rounded=0;whiteSpace=wrap;html=1;strokeWidth=3;horizontal=1;verticalAlign=top;" parent="1" vertex="1">
          <mxGeometry x="831.88" y="3000" width="120" height="80" as="geometry" />
        </mxCell>
        <mxCell id="k_ET9pbZi_g21xVmpFh6-57" value="" style="shape=mxgraph.signs.nature.venus;html=1;pointerEvents=1;fillColor=#3333FF;strokeColor=none;verticalLabelPosition=bottom;verticalAlign=top;align=center;sketch=0;" parent="1" vertex="1">
          <mxGeometry x="881.88" y="3040" width="20" height="30" as="geometry" />
        </mxCell>
        <mxCell id="k_ET9pbZi_g21xVmpFh6-58" value="" style="rounded=0;whiteSpace=wrap;html=1;strokeWidth=3;verticalAlign=top;" parent="1" vertex="1">
          <mxGeometry x="831.8800000000001" y="2949.9999999999995" width="120" height="50" as="geometry" />
        </mxCell>
        <mxCell id="k_ET9pbZi_g21xVmpFh6-59" value="" style="shape=flexArrow;endArrow=classic;html=1;rounded=0;" parent="1" edge="1">
          <mxGeometry width="50" height="50" relative="1" as="geometry">
            <mxPoint x="1020" y="3010" as="sourcePoint" />
            <mxPoint x="1060" y="3010" as="targetPoint" />
          </mxGeometry>
        </mxCell>
        <mxCell id="k_ET9pbZi_g21xVmpFh6-60" value="October" style="rounded=1;whiteSpace=wrap;html=1;verticalAlign=top;fillStyle=auto;gradientColor=none;dashed=1;" parent="1" vertex="1">
          <mxGeometry x="1079.37" y="2740" width="220" height="370" as="geometry" />
        </mxCell>
        <mxCell id="k_ET9pbZi_g21xVmpFh6-61" value="&lt;b&gt;(1)&lt;/b&gt;&lt;div&gt;Brood&lt;/div&gt;" style="rounded=0;whiteSpace=wrap;html=1;strokeWidth=3;horizontal=1;verticalAlign=top;" parent="1" vertex="1">
          <mxGeometry x="1135" y="3000" width="120" height="80" as="geometry" />
        </mxCell>
        <mxCell id="k_ET9pbZi_g21xVmpFh6-62" value="" style="shape=mxgraph.signs.nature.venus;html=1;pointerEvents=1;fillColor=#3333FF;strokeColor=none;verticalLabelPosition=bottom;verticalAlign=top;align=center;sketch=0;" parent="1" vertex="1">
          <mxGeometry x="1185" y="3040" width="20" height="30" as="geometry" />
        </mxCell>
        <mxCell id="k_ET9pbZi_g21xVmpFh6-64" value="Remove the feeder when enough sugar syrup is stored." style="text;html=1;align=center;verticalAlign=middle;whiteSpace=wrap;rounded=0;" parent="1" vertex="1">
          <mxGeometry x="1106.87" y="3130" width="165" height="30" as="geometry" />
        </mxCell>
        <mxCell id="k_ET9pbZi_g21xVmpFh6-65" value="Harvest the honey, feed plenty of thick sugar syrup so the bees can replace the brood in box (1) with sugar syrup." style="text;html=1;align=center;verticalAlign=middle;whiteSpace=wrap;rounded=0;" parent="1" vertex="1">
          <mxGeometry x="784.01" y="3140" width="200" height="30" as="geometry" />
        </mxCell>
        <mxCell id="k_ET9pbZi_g21xVmpFh6-67" value="" style="shape=flexArrow;endArrow=classic;html=1;rounded=0;" parent="1" edge="1">
          <mxGeometry width="50" height="50" relative="1" as="geometry">
            <mxPoint x="1320" y="3010" as="sourcePoint" />
            <mxPoint x="1360" y="3010" as="targetPoint" />
          </mxGeometry>
        </mxCell>
        <mxCell id="k_ET9pbZi_g21xVmpFh6-68" value="November" style="rounded=1;whiteSpace=wrap;html=1;verticalAlign=top;fillStyle=auto;gradientColor=none;dashed=1;" parent="1" vertex="1">
          <mxGeometry x="1379.37" y="2740" width="220" height="370" as="geometry" />
        </mxCell>
        <mxCell id="k_ET9pbZi_g21xVmpFh6-69" value="&lt;b&gt;(1)&lt;/b&gt;&lt;div&gt;Brood&lt;/div&gt;" style="rounded=0;whiteSpace=wrap;html=1;strokeWidth=3;horizontal=1;verticalAlign=top;" parent="1" vertex="1">
          <mxGeometry x="1435" y="3000" width="120" height="80" as="geometry" />
        </mxCell>
        <mxCell id="k_ET9pbZi_g21xVmpFh6-70" value="" style="shape=mxgraph.signs.nature.venus;html=1;pointerEvents=1;fillColor=#3333FF;strokeColor=none;verticalLabelPosition=bottom;verticalAlign=top;align=center;sketch=0;" parent="1" vertex="1">
          <mxGeometry x="1485" y="3040" width="20" height="30" as="geometry" />
        </mxCell>
        <mxCell id="k_ET9pbZi_g21xVmpFh6-72" value="Add mouse guard, insulate the hive." style="text;html=1;align=center;verticalAlign=middle;whiteSpace=wrap;rounded=0;" parent="1" vertex="1">
          <mxGeometry x="1401.5" y="3130" width="185" height="30" as="geometry" />
        </mxCell>
        <mxCell id="k_ET9pbZi_g21xVmpFh6-75" value="Add another super when required." style="text;html=1;align=center;verticalAlign=middle;whiteSpace=wrap;rounded=0;" parent="1" vertex="1">
          <mxGeometry x="497.03" y="3120" width="185" height="30" as="geometry" />
        </mxCell>
        <mxCell id="k_ET9pbZi_g21xVmpFh6-76" value="&lt;b&gt;(1)&lt;/b&gt;&lt;div&gt;Brood&lt;/div&gt;" style="rounded=0;whiteSpace=wrap;html=1;strokeWidth=3;horizontal=1;verticalAlign=top;" parent="1" vertex="1">
          <mxGeometry x="520" y="3000" width="120" height="80" as="geometry" />
        </mxCell>
        <mxCell id="k_ET9pbZi_g21xVmpFh6-77" value="" style="shape=mxgraph.signs.nature.venus;html=1;pointerEvents=1;fillColor=#3333FF;strokeColor=none;verticalLabelPosition=bottom;verticalAlign=top;align=center;sketch=0;" parent="1" vertex="1">
          <mxGeometry x="570" y="3040" width="20" height="30" as="geometry" />
        </mxCell>
        <mxCell id="k_ET9pbZi_g21xVmpFh6-78" value="&lt;b&gt;(2)&lt;/b&gt;&lt;div&gt;Honey&lt;/div&gt;" style="rounded=0;whiteSpace=wrap;html=1;strokeWidth=3;verticalAlign=top;" parent="1" vertex="1">
          <mxGeometry x="520.0000000000002" y="2931.9999999999995" width="120" height="50" as="geometry" />
        </mxCell>
        <mxCell id="k_ET9pbZi_g21xVmpFh6-79" value="" style="line;strokeWidth=6;html=1;" parent="1" vertex="1">
          <mxGeometry x="520" y="2986" width="118" height="10" as="geometry" />
        </mxCell>
        <mxCell id="k_ET9pbZi_g21xVmpFh6-80" value="&lt;b&gt;(3)&lt;/b&gt;&lt;div&gt;Honey&lt;/div&gt;" style="rounded=0;whiteSpace=wrap;html=1;strokeWidth=3;verticalAlign=top;" parent="1" vertex="1">
          <mxGeometry x="520.0000000000002" y="2881.9999999999995" width="120" height="50" as="geometry" />
        </mxCell>
        <mxCell id="k_ET9pbZi_g21xVmpFh6-81" value="&lt;b&gt;(4)&lt;/b&gt;&lt;div&gt;Honey&lt;/div&gt;" style="rounded=0;whiteSpace=wrap;html=1;strokeWidth=3;verticalAlign=top;" parent="1" vertex="1">
          <mxGeometry x="519.0000000000002" y="2831.9999999999995" width="120" height="50" as="geometry" />
        </mxCell>
        <mxCell id="k_ET9pbZi_g21xVmpFh6-82" value="sugar" style="rounded=0;whiteSpace=wrap;html=1;strokeWidth=3;verticalAlign=top;" parent="1" vertex="1">
          <mxGeometry x="867.82" y="2970" width="48.12" height="26" as="geometry" />
        </mxCell>
        <mxCell id="k_ET9pbZi_g21xVmpFh6-23" value="" style="shape=mxgraph.signs.nature.venus;html=1;pointerEvents=1;fillColor=#3333FF;strokeColor=none;verticalLabelPosition=bottom;verticalAlign=top;align=center;sketch=0;" parent="1" vertex="1">
          <mxGeometry x="881.88" y="2482" width="20" height="30" as="geometry" />
        </mxCell>
        <mxCell id="k_ET9pbZi_g21xVmpFh6-84" value="" style="rounded=0;whiteSpace=wrap;html=1;strokeWidth=3;verticalAlign=top;" parent="1" vertex="1">
          <mxGeometry x="530.0000000000001" y="2449.9999999999995" width="120" height="50" as="geometry" />
        </mxCell>
        <mxCell id="k_ET9pbZi_g21xVmpFh6-85" value="sugar" style="rounded=0;whiteSpace=wrap;html=1;strokeWidth=3;verticalAlign=top;" parent="1" vertex="1">
          <mxGeometry x="565.94" y="2470" width="48.12" height="26" as="geometry" />
        </mxCell>
        <mxCell id="ENNJN_7rmy2DXdmwuY2J-1" value="honey" style="shape=process;whiteSpace=wrap;html=1;backgroundOutline=1;rotation=-90;textDirection=ltr;direction=west;size=0.032747663551402684;" vertex="1" parent="1">
          <mxGeometry x="273.78" y="1129.8600000000001" width="174.7" height="35" as="geometry" />
        </mxCell>
      </root>
    </mxGraphModel>
  </diagram>
</mxfile>
